<svg xmlns="http://www.w3.org/2000/svg" viewBox="0 0 1024 1024" fill="none" role="img" aria-labelledby="title desc">
  <title id="title">DotCraft Unity plugin icon</title>
  <desc id="desc">A left-leaning DotCraft terminal robot with a Unity logo badge centered on its right side block.</desc>
  <defs>
    <linearGradient id="robot-blue" x1="246" y1="774" x2="698" y2="351" gradientUnits="userSpaceOnUse">
      <stop offset="0" stop-color="#2458f7"/>
      <stop offset=".48" stop-color="#5f82f7"/>
      <stop offset="1" stop-color="#8fa5ff"/>
    </linearGradient>
    <linearGradient id="robot-mark" x1="355" y1="687" x2="470" y2="553" gradientUnits="userSpaceOnUse">
      <stop offset="0" stop-color="#2257f5"/>
      <stop offset=".58" stop-color="#577df7"/>
      <stop offset="1" stop-color="#8ca2ff"/>
    </linearGradient>
    <linearGradient id="robot-yellow" x1="447" y1="196" x2="592" y2="721" gradientUnits="userSpaceOnUse">
      <stop offset="0" stop-color="#ffcf11"/>
      <stop offset="1" stop-color="#f6b500"/>
    </linearGradient>
    <filter id="robot-shadow" x="-12%" y="-12%" width="124%" height="124%">
      <feDropShadow dx="0" dy="18" stdDeviation="24" flood-color="#0b3d62" flood-opacity=".18"/>
    </filter>
    <filter id="soft-lift" x="-10%" y="-10%" width="120%" height="120%">
      <feDropShadow dx="0" dy="12" stdDeviation="16" flood-color="#163a88" flood-opacity=".14"/>
    </filter>
    <filter id="badge-shadow" x="-18%" y="-18%" width="136%" height="136%">
      <feDropShadow dx="0" dy="18" stdDeviation="20" flood-color="#0b3d62" flood-opacity=".22"/>
    </filter>
  </defs>

  <g transform="translate(-40 70) rotate(-7 512 612) scale(.9)">
    <g filter="url(#robot-shadow)">
      <rect x="201" y="365" width="622" height="513" rx="151" fill="#fff"/>
      <rect x="145" y="472" width="136" height="256" rx="58" fill="#fff"/>
      <rect x="743" y="472" width="136" height="256" rx="58" fill="#fff"/>
      <rect x="438" y="270" width="148" height="182" rx="2" fill="#fff"/>
      <circle cx="512" cy="229" r="116" fill="#fff"/>
    </g>
    <g filter="url(#soft-lift)">
      <rect x="243" y="408" width="538" height="426" rx="113" fill="url(#robot-blue)"/>
      <rect x="188" y="514" width="90" height="171" rx="19" fill="url(#robot-blue)"/>
      <rect x="746" y="514" width="90" height="171" rx="19" fill="url(#robot-blue)"/>
      <rect x="479" y="337" width="66" height="119" rx="6" fill="url(#robot-blue)"/>
    </g>
    <rect x="295" y="464" width="434" height="315" rx="78" fill="#fff"/>
    <circle cx="512" cy="229" r="73" fill="url(#robot-yellow)"/>
    <path d="M387 568 477 634 387 700" stroke="url(#robot-mark)" stroke-width="38" stroke-linecap="round" stroke-linejoin="round"/>
    <path d="M531 696h116" stroke="url(#robot-yellow)" stroke-width="27" stroke-linecap="round"/>
  </g>

  <g filter="url(#badge-shadow)">
    <circle cx="780" cy="578" r="170" fill="#fff"/>
    <g transform="translate(668 452) scale(.15)" fill="#222832">
      <path d="m1487.5 1176.1v-784.1l-679-392v301l266 154c10.5 7 10.5 21.1 0 24.6l-315 182c-10.5 7-21 3.5-28 0l-315-182c-10.5-3.5-10.5-21.1 0-24.6l266-154v-301l-682.5 392v784.1-3.5 3.5l259-150.5v-308c0-10.5 14-17.5 21-14l315 182c10.5 7 14 14 14 24.5v364c0 10.5-14 17.5-21 14l-266-154-259 150.5 679 395.6 679-392.1-259-150.5-266 154c-10.5 7-21 0-21-14v-364c0-10.5 7-21 14-24.5l315-182c10.5-7 21 0 21 14v308z"/>
      <path d="m742 1680.2l679-392.1-259-150.5-266 154c-10.5 7-21 0-21-14v-364c0-10.5 7-21 14-24.5l315-182c10.5-7 21 0 21 14v308l259 150.5v-787.6l-742 430.6z"/>
      <path d="m808.5 0v301l266 154c10.5 7 10.5 21.1 0 24.6l-315 182c-10.5 7-21 3.5-28 0l-315-182c-10.5-3.5-10.5-21.1 0-24.6l266-154v-301l-682.5 392 742 430.6 742-430.6z"/>
      <path d="m591.5 1291.6l-266-154-259 150.5 679 392.1v-857.6l-745.5-430.6v784.1-3.5 3.5l259-150.5v-308c0-10.5 14-17.5 21-14l315 182c10.5 7 14 14 14 24.5v364c3.5 14-7 24.5-17.5 17.5z"/>
    </g>
  </g>
</svg>
